{"title":"Marauders 2016 Movies HDRip XviD ESubs AAC New +Sample ~ ☻rDX☻","uid":15169683,"size":740097881,"categoryP":"video","categoryS":"movies","magnet":"?xt=urn:btih:d318dc93162918577619e1e7906e21d8bd1b07ff&amp;dn=Marauders+2016+Movies+HDRip+XviD+ESubs+AAC+New+%2BSample+%7E+%E2%98%BBrDX%E2%98%BB&amp;tr=udp%3A%2F%2Ftracker.leechers-paradise.org%3A6969&amp;tr=udp%3A%2F%2Fzer0day.ch%3A1337&amp;tr=udp%3A%2F%2Fopen.demonii.com%3A1337&amp;tr=udp%3A%2F%2Ftracker.coppersurfer.tk%3A6969&amp;tr=udp%3A%2F%2Fexodus.desync.com%3A6969","seeders":5,"leechers":1,"uploader":"basicssom","files":3,"time":1467383406,"description":"----------------------------------------------------------------\r\nMarauders 2016 English Movies HDRip XviD ESubs AAC New Source with Sample ☻rDX☻\r\n\r\nSCREEN SHOTS &amp; POSTER:\r\n  \nhttp://mobileshosting.com/2016/7/purchase/index.htm  \nhttp://mobileshosting.com/2016/7/purchase/1.html  \nhttp://mobileshosting.com/2016/7/purchase/2.html  \nhttp://mobileshosting.com/2016/7/purchase/3.html  \nhttp://mobileshosting.com/2016/7/purchase/4.html  \nhttp://mobileshosting.com/2016/7/purchase/5.html  \nhttp://mobileshosting.com/2016/7/purchase/6.html  \nhttp://mobileshosting.com/2016/7/purchase/7.html  \nhttp://mobileshosting.com/2016/7/purchase/8.html  \nhttp://mobileshosting.com/2016/7/purchase/9.html  \nhttp://mobileshosting.com/2016/7/purchase/10.html\r\n\r\nFormat                                   : Matroska\r\nFormat version                           : Version 4 / Version 2\r\nFile size                                : 693 MiB\r\nDuration                                 : 1h 47mn\r\nOverall bit rate                         : 904 Kbps\r\nMovie name                               : Marauders 2016 English Movies HDRip XviD ESubs AAC New Source ☻rDX☻\r\n\r\nVideo\r\nID                                       : 1\r\nFormat                                   : MPEG-4 Visual\r\nFormat profile                           : Advanced   \r\nFormat settings, BVOP                    : Yes\r\nFormat settings, QPel                    : No\r\nFormat settings, GMC                     : No warppoints\r\nFormat settings, Matrix                  : Default (H.263)\r\nCodec ID                                 : V_MS/VFW/FOURCC / XVID\r\nCodec ID/Hint                            : XviD\r\nDuration                                 : 1h 47mn\r\nBit rate                                 : 774 Kbps\r\nWidth                                    : 640 pixels\r\nHeight                                   : 272 pixels\r\nDisplay aspect ratio                     : 2.35:1\r\nFrame rate mode                          : Constant\r\nFrame rate                               : 23.976 fps\r\nColor space                              : YUV\r\nChroma subsampling                       : 4:2:0\r\nBit depth                                : 8 bits\r\nScan type                                : Progressive\r\nCompression mode                         : Lossy\r\nBits/(Pixel*Frame)                       : 0.186\r\nStream size                              : 593 MiB (86%)\r\nTitle                                    : ☻rDX☻\r\nWriting library                          : XviD 65\r\nDefault                                  : Yes\r\nForced                                   : No\r\n\r\nAudio\r\nID                                       : 2\r\nFormat                                   : MPEG Audio\r\nFormat version                           : Version 1\r\nFormat profile                           : Layer 3\r\nMode                                     : Joint stereo\r\nMode extension                           : MS Stereo\r\nCodec ID                                 : A_MPEG/L3\r\nCodec ID/Hint                            : MP3\r\nDuration                                 : 1h 47mn\r\nBit rate mode                            : Constant\r\nBit rate                                 : 112 Kbps\r\nChannel(s)                               : 2 channels\r\nSampling rate                            : 48.0 KHz\r\nCompression mode                         : Lossy\r\nStream size                              : 85.8 MiB (12%)\r\nTitle                                    : ☻rDX☻\r\nWriting library                          : LAME3.99r\r\nEncoding settings                        : -m j -V 4 -q 3 -lowpass 15.6 -b 112\r\nDefault                                  : Yes\r\nForced                                   : No\r\n\r\nIMDB \nhttp://www.imdb.com/title/tt3963816/","torrent":{"xt":"urn:btih:d318dc93162918577619e1e7906e21d8bd1b07ff","amp;dn":"Marauders+2016+Movies+HDRip+XviD+ESubs+AAC+New+%2BSample+%7E+%E2%98%BBrDX%E2%98%BB","amp;tr":["udp%3A%2F%2Ftracker.leechers-paradise.org%3A6969","udp%3A%2F%2Fzer0day.ch%3A1337","udp%3A%2F%2Fopen.demonii.com%3A1337","udp%3A%2F%2Ftracker.coppersurfer.tk%3A6969","udp%3A%2F%2Fexodus.desync.com%3A6969"],"infoHash":"d318dc93162918577619e1e7906e21d8bd1b07ff","infoHashBuffer":{"type":"Buffer","data":[211,24,220,147,22,41,24,87,118,25,225,231,144,110,33,216,189,27,7,255]},"announce":[],"urlList":[]}}